<svg width="26" height="26" viewBox="0 0 26 26" fill="none" xmlns="http://www.w3.org/2000/svg">
<g id="solar:calendar-outline">
<path id="Vector" d="M18.4167 15.1667C18.704 15.1667 18.9795 15.0525 19.1827 14.8494C19.3859 14.6462 19.5 14.3707 19.5 14.0833C19.5 13.796 19.3859 13.5205 19.1827 13.3173C18.9795 13.1141 18.704 13 18.4167 13C18.1293 13 17.8538 13.1141 17.6506 13.3173C17.4475 13.5205 17.3333 13.796 17.3333 14.0833C17.3333 14.3707 17.4475 14.6462 17.6506 14.8494C17.8538 15.0525 18.1293 15.1667 18.4167 15.1667ZM18.4167 19.5C18.704 19.5 18.9795 19.3859 19.1827 19.1827C19.3859 18.9795 19.5 18.704 19.5 18.4167C19.5 18.1293 19.3859 17.8538 19.1827 17.6506C18.9795 17.4475 18.704 17.3333 18.4167 17.3333C18.1293 17.3333 17.8538 17.4475 17.6506 17.6506C17.4475 17.8538 17.3333 18.1293 17.3333 18.4167C17.3333 18.704 17.4475 18.9795 17.6506 19.1827C17.8538 19.3859 18.1293 19.5 18.4167 19.5ZM14.0833 14.0833C14.0833 14.3707 13.9692 14.6462 13.766 14.8494C13.5629 15.0525 13.2873 15.1667 13 15.1667C12.7127 15.1667 12.4371 15.0525 12.234 14.8494C12.0308 14.6462 11.9167 14.3707 11.9167 14.0833C11.9167 13.796 12.0308 13.5205 12.234 13.3173C12.4371 13.1141 12.7127 13 13 13C13.2873 13 13.5629 13.1141 13.766 13.3173C13.9692 13.5205 14.0833 13.796 14.0833 14.0833ZM14.0833 18.4167C14.0833 18.704 13.9692 18.9795 13.766 19.1827C13.5629 19.3859 13.2873 19.5 13 19.5C12.7127 19.5 12.4371 19.3859 12.234 19.1827C12.0308 18.9795 11.9167 18.704 11.9167 18.4167C11.9167 18.1293 12.0308 17.8538 12.234 17.6506C12.4371 17.4475 12.7127 17.3333 13 17.3333C13.2873 17.3333 13.5629 17.4475 13.766 17.6506C13.9692 17.8538 14.0833 18.1293 14.0833 18.4167ZM7.58333 15.1667C7.87065 15.1667 8.1462 15.0525 8.34937 14.8494C8.55253 14.6462 8.66667 14.3707 8.66667 14.0833C8.66667 13.796 8.55253 13.5205 8.34937 13.3173C8.1462 13.1141 7.87065 13 7.58333 13C7.29602 13 7.02047 13.1141 6.8173 13.3173C6.61414 13.5205 6.5 13.796 6.5 14.0833C6.5 14.3707 6.61414 14.6462 6.8173 14.8494C7.02047 15.0525 7.29602 15.1667 7.58333 15.1667ZM7.58333 19.5C7.87065 19.5 8.1462 19.3859 8.34937 19.1827C8.55253 18.9795 8.66667 18.704 8.66667 18.4167C8.66667 18.1293 8.55253 17.8538 8.34937 17.6506C8.1462 17.4475 7.87065 17.3333 7.58333 17.3333C7.29602 17.3333 7.02047 17.4475 6.8173 17.6506C6.61414 17.8538 6.5 18.1293 6.5 18.4167C6.5 18.704 6.61414 18.9795 6.8173 19.1827C7.02047 19.3859 7.29602 19.5 7.58333 19.5Z" fill="#6A6A6A"/>
<path id="Vector_2" fill-rule="evenodd" clip-rule="evenodd" d="M7.58355 1.89587C7.79904 1.89587 8.0057 1.98148 8.15808 2.13385C8.31045 2.28622 8.39605 2.49289 8.39605 2.70837V3.53496C9.11322 3.52087 9.90297 3.52087 10.7718 3.52087H15.2276C16.0975 3.52087 16.8872 3.52087 17.6044 3.53496V2.70837C17.6044 2.49289 17.69 2.28622 17.8424 2.13385C17.9947 1.98148 18.2014 1.89587 18.4169 1.89587C18.6324 1.89587 18.839 1.98148 18.9914 2.13385C19.1438 2.28622 19.2294 2.49289 19.2294 2.70837V3.60429C19.5111 3.62596 19.7779 3.6534 20.03 3.68662C21.2996 3.85779 22.3277 4.21746 23.1391 5.02779C23.9495 5.83921 24.3091 6.86729 24.4803 8.13696C24.6461 9.37196 24.6461 10.9482 24.6461 12.9394V15.2274C24.6461 17.2185 24.6461 18.7959 24.4803 20.0298C24.3091 21.2995 23.9495 22.3275 23.1391 23.139C22.3277 23.9493 21.2996 24.309 20.03 24.4801C18.795 24.6459 17.2187 24.6459 15.2276 24.6459H10.774C8.7828 24.6459 7.20547 24.6459 5.97155 24.4801C4.70189 24.309 3.6738 23.9493 2.86239 23.139C2.05205 22.3275 1.69239 21.2995 1.52122 20.0298C1.35547 18.7948 1.35547 17.2185 1.35547 15.2274V12.9394C1.35547 10.9482 1.35547 9.37087 1.52122 8.13696C1.69239 6.86729 2.05205 5.83921 2.86239 5.02779C3.6738 4.21746 4.70189 3.85779 5.97155 3.68662C6.22433 3.6534 6.49119 3.62596 6.77214 3.60429V2.70837C6.77214 2.49307 6.85759 2.28657 7.00973 2.13423C7.16187 1.98189 7.36825 1.89616 7.58355 1.89587ZM6.18605 5.29754C5.0973 5.44379 4.46897 5.71896 4.01072 6.17721C3.55247 6.63546 3.2773 7.26379 3.13105 8.35254C3.1065 8.53671 3.08555 8.73135 3.06822 8.93646H22.9322C22.9149 8.73135 22.8939 8.53635 22.8694 8.35146C22.7231 7.26271 22.448 6.63437 21.9897 6.17612C21.5315 5.71787 20.9031 5.44271 19.8133 5.29646C18.7007 5.14696 17.2328 5.14479 15.1669 5.14479H10.8336C8.76764 5.14479 7.3008 5.14804 6.18605 5.29754ZM2.97939 13C2.97939 12.0749 2.97939 11.27 2.99347 10.5625H23.007C23.0211 11.27 23.0211 12.0749 23.0211 13V15.1667C23.0211 17.2326 23.0189 18.7005 22.8694 19.8142C22.7231 20.903 22.448 21.5313 21.9897 21.9895C21.5315 22.4478 20.9031 22.723 19.8133 22.8692C18.7007 23.0187 17.2328 23.0209 15.1669 23.0209H10.8336C8.76764 23.0209 7.3008 23.0187 6.18605 22.8692C5.0973 22.723 4.46897 22.4478 4.01072 21.9895C3.55247 21.5313 3.2773 20.903 3.13105 19.8131C2.98155 18.7005 2.97939 17.2326 2.97939 15.1667V13Z" fill="#6A6A6A"/>
</g>
</svg>
