<svg width="17" height="17" viewBox="0 0 17 17" fill="none" xmlns="http://www.w3.org/2000/svg">
<g id="tabler:arrow-back">
<g id="Group 1000013780">
<path id="Vector" d="M13.4211 4.88158C13.4211 4.38255 13.2228 3.90397 12.87 3.5511C12.5171 3.19824 12.0385 3 11.5395 3H4.88158C4.38255 3 3.90397 3.19824 3.5511 3.5511C3.19824 3.90397 3 4.38255 3 4.88158V11.5395C3 12.0385 3.19824 12.5171 3.5511 12.87C3.90397 13.2228 4.38255 13.4211 4.88158 13.4211H7.19737V12.5526H4.88158C4.61287 12.5526 4.35517 12.4459 4.16517 12.2559C3.97516 12.0659 3.86842 11.8082 3.86842 11.5395V6.18421H12.5526V11.5395C12.5526 11.8082 12.4459 12.0659 12.2559 12.2559C12.0659 12.4459 11.8082 12.5526 11.5395 12.5526H9.22368V13.4211H11.5395C12.0385 13.4211 12.5171 13.2228 12.87 12.87C13.2228 12.5171 13.4211 12.0385 13.4211 11.5395V4.88158ZM4.88158 3.86842H11.5395C12.0987 3.86842 12.5526 4.32232 12.5526 4.88158V5.31579H3.86842V4.88158C3.86842 4.32232 4.32232 3.86842 4.88158 3.86842ZM8.93421 8.06579C8.93421 8.25772 8.85797 8.44179 8.72225 8.57751C8.58653 8.71323 8.40246 8.78947 8.21053 8.78947C8.01859 8.78947 7.83452 8.71323 7.6988 8.57751C7.56309 8.44179 7.48684 8.25772 7.48684 8.06579C7.48684 7.87386 7.56309 7.68978 7.6988 7.55407C7.83452 7.41835 8.01859 7.34211 8.21053 7.34211C8.40246 7.34211 8.58653 7.41835 8.72225 7.55407C8.85797 7.68978 8.93421 7.87386 8.93421 8.06579ZM9.22484 11.8637C9.31156 11.9348 9.42244 11.9696 9.53426 11.9608C9.64607 11.952 9.75014 11.9003 9.82468 11.8165C9.89921 11.7327 9.93842 11.6233 9.9341 11.5112C9.92977 11.3991 9.88224 11.2931 9.80147 11.2153L8.49884 10.0574C8.41938 9.9868 8.3168 9.94783 8.21053 9.94783C8.10425 9.94783 8.00167 9.9868 7.92221 10.0574L6.61958 11.2153C6.53881 11.2931 6.49128 11.3991 6.48696 11.5112C6.48263 11.6233 6.52184 11.7327 6.59638 11.8165C6.67091 11.9003 6.77498 11.952 6.8868 11.9608C6.99861 11.9696 7.10949 11.9348 7.19621 11.8637L7.77632 11.3484V13.5658C7.77632 13.6228 7.78755 13.6793 7.80937 13.732C7.83119 13.7846 7.86317 13.8325 7.90349 13.8728C7.94381 13.9131 7.99168 13.9451 8.04436 13.9669C8.09704 13.9888 8.1535 14 8.21053 14C8.26755 14 8.32401 13.9888 8.37669 13.9669C8.42937 13.9451 8.47724 13.9131 8.51756 13.8728C8.55788 13.8325 8.58986 13.7846 8.61168 13.732C8.63351 13.6793 8.64474 13.6228 8.64474 13.5658V11.3484L9.22484 11.8637Z" fill="#868686"/>
</g>
</g>
</svg>
