<svg width="32" height="31" viewBox="0 0 32 31" fill="none" xmlns="http://www.w3.org/2000/svg">
<path d="M18.7685 23.3349L11.6224 16.3141V16.3139V16.3136V16.3133V16.313V16.3127V16.3125V16.3122V16.3119V16.3116V16.3114V16.3111V16.3108V16.3106V16.3103V16.3101V16.3098V16.3096V16.3093V16.3091V16.3088V16.3086V16.3083V16.3081V16.3079V16.3077V16.3074V16.3072V16.307V16.3068V16.3066V16.3064V16.3061V16.3059V16.3057V16.3055V16.3053V16.3052V16.305V16.3048V16.3046V16.3044V16.3042V16.3041V16.3039V16.3037V16.3036V16.3034V16.3032V16.3031V16.3029V16.3028V16.3026V16.3025V16.3023V16.3022V16.302V16.3019V16.3018V16.3017V16.3015V16.3014V16.3013V16.3012V16.3011V16.3009V16.3008V16.3007V16.3006V16.3005V16.3004V16.3003V16.3002V16.3002V16.3001V16.3V16.2999V16.2998V16.2998V16.2997V16.2996V16.2996V16.2995V16.2994V16.2994V16.2993V16.2993V16.2992V16.2992V16.2991V16.2991V16.2991V16.299V16.299V16.299V16.2989V16.2989V16.2989V16.2989V16.2989V16.2989V16.2989H11.6068L11.5739 16.2666C11.3496 15.9827 11.2433 15.6792 11.2433 15.3827C11.2433 15.0862 11.3496 14.7827 11.5739 14.4988L18.7685 7.43045L18.7685 7.43046L18.7697 7.42927C18.8849 7.31409 18.9926 7.23525 19.1076 7.18413C19.2218 7.13337 19.3528 7.10569 19.5203 7.10569C19.6877 7.10569 19.8188 7.13337 19.933 7.18413C20.048 7.23525 20.1556 7.31409 20.2708 7.42927C20.7022 7.86071 20.7022 8.49889 20.2708 8.93034L20.2695 8.9317L14.0775 15.25L13.9475 15.3827L14.0775 15.5154L20.2695 21.8337L20.2695 21.8337L20.2708 21.8351C20.7022 22.2665 20.7022 22.9047 20.2708 23.3361C19.8394 23.7676 19.2012 23.7676 18.7697 23.3361L18.7685 23.3349Z" fill="#5A5A5A" stroke="white" stroke-width="0.3791"/>
</svg>
