<svg width="32" height="31" viewBox="0 0 32 31" fill="none" xmlns="http://www.w3.org/2000/svg">
<path d="M13.3315 7.4792L13.3322 7.47986L20.4845 14.6196L20.6184 14.4854L20.4899 14.6247C20.5989 14.7253 20.6859 14.8474 20.7454 14.9833C20.805 15.1192 20.8357 15.2659 20.8357 15.4142C20.8357 15.5626 20.805 15.7093 20.7454 15.8452C20.6859 15.981 20.5989 16.1031 20.4899 16.2037L20.4898 16.2036L20.4845 16.2089L13.3321 23.3486L13.3307 23.35C13.2312 23.4515 13.1126 23.5323 12.9817 23.5876C12.851 23.6428 12.7107 23.6716 12.5689 23.6723C12.427 23.6716 12.2867 23.6428 12.156 23.5876C12.0251 23.5323 11.9065 23.4515 11.807 23.35L11.8061 23.3491C11.606 23.1478 11.4937 22.8756 11.4937 22.5918C11.4937 22.3082 11.606 22.036 11.8059 21.8348C11.8059 21.8347 11.806 21.8347 11.8061 21.8346L18.0608 15.5798L18.1942 15.4465L18.0615 15.3125L11.8064 8.99413L11.8061 8.99385C11.606 8.7926 11.4937 8.52036 11.4937 8.2366C11.4937 7.95283 11.606 7.6806 11.8061 7.47935L11.8062 7.4792C11.9061 7.37852 12.0249 7.29861 12.1558 7.24408C12.2867 7.18955 12.4271 7.16147 12.5689 7.16147C12.7107 7.16147 12.8511 7.18955 12.9819 7.24408C13.1128 7.29861 13.2316 7.37852 13.3315 7.4792L13.3315 7.4792Z" fill="#5A5A5A" stroke="white" stroke-width="0.3791"/>
</svg>
