<svg width="6" height="11" viewBox="0 0 6 11" fill="none" xmlns="http://www.w3.org/2000/svg">
<path id="Vector" d="M0.203967 0.203605C0.268233 0.139065 0.344578 0.0878595 0.42863 0.0529217C0.512682 0.0179839 0.60279 0 0.69379 0C0.784791 0 0.874898 0.0179839 0.958951 0.0529217C1.043 0.0878595 1.11935 0.139065 1.18361 0.203605L5.78296 4.81089C5.83427 4.86218 5.87498 4.92311 5.90275 4.99018C5.93053 5.05725 5.94482 5.12915 5.94482 5.20176C5.94482 5.27437 5.93053 5.34627 5.90275 5.41334C5.87498 5.48041 5.83427 5.54134 5.78296 5.59263L1.18361 10.1999C0.912412 10.4716 0.475169 10.4716 0.203967 10.1999C-0.067234 9.92825 -0.067234 9.49025 0.203967 9.21858L4.2111 5.19899L0.198434 1.1794C-0.0672326 0.913271 -0.067234 0.469729 0.203967 0.203605Z" fill="#575757"/>
</svg>
