<svg width="13" height="20" viewBox="0 0 13 20" fill="none" xmlns="http://www.w3.org/2000/svg">
<g id="&#235;&#146;&#164;&#235;&#161;&#156;&#234;&#176;&#128;&#234;&#184;&#176;">
<path id="Vector" d="M10.691 2.31313C10.5937 2.21387 10.4781 2.13512 10.3509 2.08139C10.2237 2.02766 10.0872 2 9.94948 2C9.81172 2 9.6753 2.02766 9.54806 2.08139C9.42081 2.13512 9.30524 2.21387 9.20794 2.31313L2.24504 9.39876C2.16736 9.47764 2.10574 9.57134 2.06369 9.67449C2.02164 9.77764 2 9.88821 2 9.99989C2 10.1116 2.02164 10.2221 2.06369 10.3253C2.10574 10.4284 2.16736 10.5221 2.24504 10.601L9.20794 17.6866C9.61851 18.1045 10.2804 18.1045 10.691 17.6866C11.1016 17.2688 11.1016 16.5952 10.691 16.1774L4.62466 9.99562L10.6994 3.81381C11.1016 3.40454 11.1016 2.72241 10.691 2.31313Z" fill="black"/>
</g>
</svg>
