<svg width="26" height="26" viewBox="0 0 26 26" fill="none" xmlns="http://www.w3.org/2000/svg">
<path d="M17.333 8.66663C18.195 8.66663 19.0216 9.00903 19.6311 9.61853C20.2406 10.228 20.583 11.0547 20.583 11.9166V20.5833C20.583 21.4452 20.2406 22.2719 19.6311 22.8814C19.0216 23.4909 18.195 23.8333 17.333 23.8333H7.58301C6.72105 23.8333 5.8944 23.4909 5.28491 22.8814C4.67542 22.2719 4.33301 21.4452 4.33301 20.5833V11.9166C4.33301 11.0547 4.67542 10.228 5.28491 9.61853C5.8944 9.00903 6.72105 8.66663 7.58301 8.66663V7.04163C7.58301 4.33329 9.74967 2.16663 12.458 2.16663C15.1663 2.16663 17.333 4.33329 17.333 7.04163V8.66663ZM7.58301 9.74996C7.00837 9.74996 6.45727 9.97823 6.05094 10.3846C5.64461 10.7909 5.41634 11.342 5.41634 11.9166V20.5833C5.41634 21.1579 5.64461 21.709 6.05094 22.1154C6.45727 22.5217 7.00837 22.75 7.58301 22.75H17.333C17.9076 22.75 18.4587 22.5217 18.8651 22.1154C19.2714 21.709 19.4997 21.1579 19.4997 20.5833V11.9166C19.4997 11.342 19.2714 10.7909 18.8651 10.3846C18.4587 9.97823 17.9076 9.74996 17.333 9.74996H7.58301ZM16.2497 8.66663V7.04163C16.2497 6.03601 15.8502 5.07159 15.1391 4.36051C14.428 3.64944 13.4636 3.24996 12.458 3.24996C11.4524 3.24996 10.488 3.64944 9.7769 4.36051C9.06582 5.07159 8.66634 6.03601 8.66634 7.04163V8.66663H16.2497ZM12.458 15.1666C12.027 15.1666 11.6137 15.3378 11.309 15.6426C11.0042 15.9473 10.833 16.3606 10.833 16.7916C10.833 17.2226 11.0042 17.6359 11.309 17.9407C11.6137 18.2454 12.027 18.4166 12.458 18.4166C12.889 18.4166 13.3023 18.2454 13.6071 17.9407C13.9118 17.6359 14.083 17.2226 14.083 16.7916C14.083 16.3606 13.9118 15.9473 13.6071 15.6426C13.3023 15.3378 12.889 15.1666 12.458 15.1666ZM12.458 14.0833C13.1763 14.0833 13.8652 14.3686 14.3731 14.8765C14.881 15.3845 15.1663 16.0733 15.1663 16.7916C15.1663 17.5099 14.881 18.1988 14.3731 18.7067C13.8652 19.2146 13.1763 19.5 12.458 19.5C11.7397 19.5 11.0508 19.2146 10.5429 18.7067C10.035 18.1988 9.74967 17.5099 9.74967 16.7916C9.74967 16.0733 10.035 15.3845 10.5429 14.8765C11.0508 14.3686 11.7397 14.0833 12.458 14.0833Z" fill="black"/>
</svg>
